<?xml version="1.0" standalone="no"?>
<!DOCTYPE svg PUBLIC "-//W3C//DTD SVG 20010904//EN"
 "http://www.w3.org/TR/2001/REC-SVG-20010904/DTD/svg10.dtd">
<svg version="1.0" xmlns="http://www.w3.org/2000/svg"
 width="260.000000pt" height="260.000000pt" viewBox="0 0 260.000000 260.000000"
 preserveAspectRatio="xMidYMid meet">
<metadata>
Created by potrace 1.11, written by Peter Selinger 2001-2013
</metadata>
<g transform="translate(0.000000,260.000000) scale(0.100000,-0.100000)"
fill="#000000" stroke="none">
<path d="M0 1300 l0 -1300 1300 0 1300 0 0 1300 0 1300 -1300 0 -1300 0 0
-1300z m892 563 c230 -183 420 -333 423 -333 3 0 5 140 5 310 l0 310 415 0
415 0 0 -880 0 -880 -307 0 -308 -1 -112 118 -112 118 -118 -117 -118 -118
-313 0 -312 0 0 911 c0 711 3 909 12 903 7 -4 200 -158 430 -341z"/>
</g>
</svg>
